<svg xmlns="http://www.w3.org/2000/svg" viewBox="0 0 24 24"><path fill="#303C42" d="M23.947 19.276L20.56 12.5l.063-.127a3.595 3.595 0 0 0 .377-1.6c0-.94-.382-1.861-1.047-2.527L16.44 4.732A2.484 2.484 0 0 0 14.672 4h-.936c-.934 0-1.77.513-2.205 1.336L7.757 3.071A.494.494 0 0 0 7.5 3h-6a.5.5 0 0 0-.447.276l-1 2A.501.501 0 0 0 .5 6h6.356l3.303 2.064-.106.212a.5.5 0 0 0 .031.501c.535.803.64 1.816.282 2.711l-.33.826a.5.5 0 0 0 .048.463l2 3A.5.5 0 0 0 12.5 16h.191l2.362 4.724A.5.5 0 0 0 15.5 21h6a.502.502 0 0 0 .224-.053l2-1a.5.5 0 0 0 .223-.67zM15.81 20l-2.104-4.208 1.674-.558.309.283A4.057 4.057 0 0 1 17 18.5a.5.5 0 1 0 1 0c0-1.367-.57-2.675-1.55-3.623l.832-.277 3.323 5.4H15.81z"/><path fill="#CCC" d="M21.686 19.848l-3.76-6.11a.5.5 0 0 0-.584-.212L12.919 15h-.151l-1.706-2.559.232-.581a3.922 3.922 0 0 0-.223-3.384l1.324-2.647c.255-.511.77-.829 1.341-.829h.936c.394 0 .781.16 1.06.44l3.514 3.513c.48.48.754 1.143.754 1.82 0 .398-.094.797-.271 1.152l-.176.35a.502.502 0 0 0 0 .449l3.276 6.552-1.143.572z"/><circle cx="15.5" cy="10.5" r="2.5" fill="#303C42"/><circle cx="15.5" cy="10.5" r="1.5" fill="#FFCA28"/><path fill="#303C42" d="M2.11 11.188C1.893 11.457 0 13.872 0 15.5 0 16.878 1.121 18 2.5 18S5 16.878 5 15.5c0-1.628-1.894-4.042-2.11-4.313a.518.518 0 0 0-.78 0z"/><path fill="#666" d="M2.5 17c-.827 0-1.5-.673-1.5-1.5 0-.872.88-2.298 1.5-3.167.62.868 1.5 2.294 1.5 3.167 0 .827-.673 1.5-1.5 1.5z"/><path d="M2.5 12.333l-.035.05C2.771 12.968 3 13.556 3 14c0 .827-.673 1.5-1.5 1.5-.173 0-.336-.035-.49-.09-.002.03-.01.062-.01.09 0 .827.673 1.5 1.5 1.5S4 16.327 4 15.5c0-.873-.88-2.3-1.5-3.167z" opacity=".1"/><path fill="#D7CCC8" d="M7.265 5.076A.497.497 0 0 0 7 5H1.309l.5-1H7.36l3.715 2.229-.468.937-3.343-2.09z"/><linearGradient id="a" x1="-.615" x2="24.545" y1="6.709" y2="18.441" gradientUnits="userSpaceOnUse"><stop offset="0" stop-color="#FFF" stop-opacity=".2"/><stop offset="1" stop-color="#FFF" stop-opacity="0"/></linearGradient><path fill="url(#a)" d="M23.947 19.276L20.56 12.5l.063-.127a3.595 3.595 0 0 0 .377-1.6c0-.94-.382-1.861-1.047-2.527L16.44 4.732A2.484 2.484 0 0 0 14.672 4h-.936c-.934 0-1.77.513-2.205 1.336L7.757 3.071A.494.494 0 0 0 7.5 3h-6a.5.5 0 0 0-.447.276l-1 2A.501.501 0 0 0 .5 6h6.356l3.303 2.064-.106.212a.5.5 0 0 0 .031.501c.535.803.64 1.816.282 2.711l-.33.826a.5.5 0 0 0 .048.463l2 3A.5.5 0 0 0 12.5 16h.191l2.362 4.724A.5.5 0 0 0 15.5 21h6a.502.502 0 0 0 .224-.053l2-1a.5.5 0 0 0 .223-.67zM15.81 20l-2.104-4.208 1.674-.558.309.283A4.057 4.057 0 0 1 17 18.5a.5.5 0 1 0 1 0c0-1.367-.57-2.675-1.55-3.623l.832-.277 3.323 5.4H15.81zm-13.7-8.813C1.894 11.457 0 13.873 0 15.5 0 16.878 1.121 18 2.5 18S5 16.878 5 15.5c0-1.628-1.894-4.042-2.11-4.313a.518.518 0 0 0-.78 0z"/></svg>