<svg xmlns="http://www.w3.org/2000/svg" width="32" height="32" viewBox="0 0 8.467 8.467"><g transform="translate(551.418 -500.198) scale(.26458)"><path fill="#484666" d="m -2058.2024,1891.5128 c -0.1234,3e-4 -0.2424,0.046 -0.334,0.1289 l -4.248,3.834 c -0.052,-0.135 -0.1002,-0.2692 -0.168,-0.4023 -0.2154,-0.4235 -0.5362,-0.8457 -1.0449,-1.0567 -0.5778,-0.2396 -1.1187,-0.042 -1.5762,0.1231 0,-0.063 0,-0.1621 0.012,-0.1992 0.047,-0.2354 0.3808,-1.0078 0.3808,-1.0078 0.16,-0.329 -0.076,-0.7128 -0.4414,-0.7188 v 0 c -0.2012,0 -0.3851,0.113 -0.4668,0.2969 0,0 -0.346,0.6871 -0.4551,1.2344 -0.032,0.1578 -0.031,0.3259 -0.041,0.4961 -0.075,-0.032 -0.092,-0.05 -0.2071,-0.092 -0.4623,-0.1665 -1.0116,-0.3747 -1.5996,-0.1309 -0.5086,0.211 -0.8314,0.6331 -1.0468,1.0566 -0.2155,0.4236 -0.3424,0.8724 -0.4473,1.2461 -0.1309,0.4663 -0.1721,0.7912 -0.1914,1.1914 h -2.5215 c -0.2761,10e-5 -0.5,0.2239 -0.5,0.5 v 3.5 h -6.25 c -0.2761,10e-5 -0.5,0.2239 -0.5,0.5 v 2.3536 l -2.1699,3.3769 c -0.052,0.08 -0.08,0.1739 -0.08,0.2695 v 13 c 0,0.2762 0.2239,0.5 0.5,0.5 8.1651,0 16.3276,0 24.5,0 1.6534,0 3,-1.3466 3,-3 -4e-4,-6.8333 0,-20.5 0,-20.5 0,-0.2761 -0.2239,-0.4999 -0.5,-0.5 h -0.959 c 0.05,-2.1714 -0.7626,-4.2818 -2.2871,-5.8476 -0.094,-0.097 -0.2242,-0.1509 -0.3594,-0.1504 z" color="#000" font-family="sans-serif" font-weight="400" overflow="visible" style="line-height:normal;font-variant-ligatures:normal;font-variant-position:normal;font-variant-caps:normal;font-variant-numeric:normal;font-variant-alternates:normal;font-feature-settings:normal;text-indent:0;text-align:start;text-decoration-line:none;text-decoration-style:solid;text-decoration-color:#000;text-transform:none;text-orientation:mixed;shape-padding:0;isolation:auto;mix-blend-mode:normal"/><path fill="#98d1b3" d="m -2058.3004,1892.7765 c 1.1259,1.3316 1.7817,2.9944 1.7461,4.7344 h -0.6856 c 0.044,-1.5793 -0.4943,-3.1174 -1.5156,-4.3242 z" color="#000" font-family="sans-serif" font-weight="400" overflow="visible" style="line-height:normal;font-variant-ligatures:normal;font-variant-position:normal;font-variant-caps:normal;font-variant-numeric:normal;font-variant-alternates:normal;font-feature-settings:normal;text-indent:0;text-align:start;text-decoration-line:none;text-decoration-style:solid;text-decoration-color:#000;text-transform:none;text-orientation:mixed;shape-padding:0;isolation:auto;mix-blend-mode:normal"/><path fill="#ec959e" d="m -2059.4977,1893.8566 c 0.8558,1.0226 1.3037,2.321 1.2598,3.6543 h -5.3086 z" color="#000" font-family="sans-serif" font-weight="400" overflow="visible" style="line-height:normal;font-variant-ligatures:normal;font-variant-position:normal;font-variant-caps:normal;font-variant-numeric:normal;font-variant-alternates:normal;font-feature-settings:normal;text-indent:0;text-align:start;text-decoration-line:none;text-decoration-style:solid;text-decoration-color:#000;text-transform:none;text-orientation:mixed;shape-padding:0;isolation:auto;mix-blend-mode:normal"/><path fill="#98d1b3" d="m -2068.0075,1894.9406 c 0.046,-0.019 0.4974,0.011 0.879,0.1484 0.3814,0.1374 0.6972,0.3067 0.6972,0.3067 v -0.01 c 0.2339,0.2036 0.5946,0.1476 0.7559,-0.1171 0.1274,-0.062 0.1849,-0.1006 0.4101,-0.1817 0.3816,-0.1375 0.833,-0.1674 0.8789,-0.1484 0.2071,0.086 0.3841,0.2812 0.5391,0.5859 0.1005,0.1975 0.1828,0.432 0.2578,0.6719 l -1.4551,1.3125 h -4.0429 c 0.013,-0.2863 0.044,-0.5068 0.1621,-0.9219 0.1031,-0.3674 0.22,-0.7579 0.375,-1.0625 0.155,-0.3047 0.332,-0.5 0.539,-0.5859 z" color="#000" font-family="sans-serif" font-weight="400" overflow="visible" style="line-height:normal;font-variant-ligatures:normal;font-variant-position:normal;font-variant-caps:normal;font-variant-numeric:normal;font-variant-alternates:normal;font-feature-settings:normal;text-indent:0;text-align:start;text-decoration-line:none;text-decoration-style:solid;text-decoration-color:#000;text-transform:none;text-orientation:mixed;shape-padding:0;isolation:auto;mix-blend-mode:normal"/><path fill="#e9af7f" d="m -2072.0969,1898.5109 h 17 c 0,0 -2e-4,10.1419 0,17 h -13 v -7.5 c -4e-4,-0.096 -0.028,-0.1892 -0.08,-0.2695 l -2.1699,-3.377 v -2.3535 c 0,-0.2761 -0.2239,-0.5 -0.5,-0.5 h -1.25 z" color="#000" font-family="sans-serif" font-weight="400" overflow="visible" style="line-height:normal;font-variant-ligatures:normal;font-variant-position:normal;font-variant-caps:normal;font-variant-numeric:normal;font-variant-alternates:normal;font-feature-settings:normal;text-indent:0;text-align:start;text-decoration-line:none;text-decoration-style:solid;text-decoration-color:#000;text-transform:none;text-orientation:mixed;shape-padding:0;isolation:auto;mix-blend-mode:normal"/><path fill="#dfe1ed" d="M-2078.8469 1902.5109h7.5v1.5h-7.5zM-2078.4328 1905.0109h7.3125l1.6074 2.5h-7.3125z" color="#000" font-family="sans-serif" font-weight="400" overflow="visible" style="line-height:normal;font-variant-ligatures:normal;font-variant-position:normal;font-variant-caps:normal;font-variant-numeric:normal;font-variant-alternates:normal;font-feature-settings:normal;text-indent:0;text-align:start;text-decoration-line:none;text-decoration-style:solid;text-decoration-color:#000;text-transform:none;text-orientation:mixed;shape-padding:0;isolation:auto;mix-blend-mode:normal"/><path fill="#a8c9ce" d="M-2079.3469 1905.4367l1.334 2.0742h-2.668zM-2081.0969 1908.5109h3.5v12h-3.5z" color="#000" font-family="sans-serif" font-weight="400" overflow="visible" style="line-height:normal;font-variant-ligatures:normal;font-variant-position:normal;font-variant-caps:normal;font-variant-numeric:normal;font-variant-alternates:normal;font-feature-settings:normal;text-indent:0;text-align:start;text-decoration-line:none;text-decoration-style:solid;text-decoration-color:#000;text-transform:none;text-orientation:mixed;shape-padding:0;isolation:auto;mix-blend-mode:normal"/><path fill="#dfe1ed" d="m -2076.5969,1908.5109 h 7.5 v 12 h -7.5 z" color="#000" font-family="sans-serif" font-weight="400" overflow="visible" style="line-height:normal;font-variant-ligatures:normal;font-variant-position:normal;font-variant-caps:normal;font-variant-numeric:normal;font-variant-alternates:normal;font-feature-settings:normal;text-indent:0;text-align:start;text-decoration-line:none;text-decoration-style:solid;text-decoration-color:#000;text-transform:none;text-orientation:mixed;shape-padding:0;isolation:auto;mix-blend-mode:normal"/><path fill="#ff7f58" d="m -2068.0969,1916.5109 h 13 v 2 c 0,1.1167 -0.8834,2 -2,2 h -11 z" color="#000" font-family="sans-serif" font-weight="400" overflow="visible" style="line-height:normal;font-variant-ligatures:normal;font-variant-position:normal;font-variant-caps:normal;font-variant-numeric:normal;font-variant-alternates:normal;font-feature-settings:normal;text-indent:0;text-align:start;text-decoration-line:none;text-decoration-style:solid;text-decoration-color:#000;text-transform:none;text-orientation:mixed;shape-padding:0;isolation:auto;mix-blend-mode:normal"/><path fill="#c6d1dc" style="line-height:normal;font-variant-ligatures:normal;font-variant-position:normal;font-variant-caps:normal;font-variant-numeric:normal;font-variant-alternates:normal;font-feature-settings:normal;text-indent:0;text-align:start;text-decoration-line:none;text-decoration-style:solid;text-decoration-color:#000;text-transform:none;text-orientation:mixed;shape-padding:0;isolation:auto;mix-blend-mode:normal" d="m -2072.5396,1912.012 a 0.50004994,0.50004994 0 0 0 -0.3945,0.2422 c 0,0 -0.2558,0.4263 -0.5137,0.9179 -0.1289,0.2458 -0.2584,0.509 -0.3613,0.7539 -0.1029,0.245 -0.1953,0.4342 -0.1953,0.7286 0,0.7886 0.7162,1.3554 1.5,1.3554 0.7839,0 1.5,-0.5668 1.5,-1.3554 0,-0.2944 -0.092,-0.4836 -0.1953,-0.7286 -0.103,-0.2449 -0.2324,-0.5081 -0.3613,-0.7539 -0.258,-0.4916 -0.5137,-0.9179 -0.5137,-0.9179 a 0.50004994,0.50004994 0 0 0 -0.4649,-0.2422 z" color="#000" font-family="sans-serif" font-weight="400" overflow="visible"/><path fill="#484666" d="m -2072.8821,1912.012 a 0.50004994,0.50004994 0 0 0 -0.3945,0.2422 c 0,0 -0.2558,0.4263 -0.5137,0.9179 -0.1289,0.2458 -0.2584,0.509 -0.3613,0.7539 -0.1029,0.245 -0.1953,0.4342 -0.1953,0.7286 0,0.7886 0.7162,1.3554 1.5,1.3554 0.7839,0 1.5,-0.5668 1.5,-1.3554 0,-0.2944 -0.092,-0.4836 -0.1953,-0.7286 -0.103,-0.2449 -0.2324,-0.5081 -0.3613,-0.7539 -0.258,-0.4916 -0.5137,-0.9179 -0.5137,-0.9179 a 0.50004994,0.50004994 0 0 0 -0.4649,-0.2422 z" color="#000" font-family="sans-serif" font-weight="400" overflow="visible" style="line-height:normal;font-variant-ligatures:normal;font-variant-position:normal;font-variant-caps:normal;font-variant-numeric:normal;font-variant-alternates:normal;font-feature-settings:normal;text-indent:0;text-align:start;text-decoration-line:none;text-decoration-style:solid;text-decoration-color:#000;text-transform:none;text-orientation:mixed;shape-padding:0;isolation:auto;mix-blend-mode:normal"/><path fill="#fff" d="m -2072.8471,1913.5354 c 0.028,0.052 0.028,0.048 0.057,0.1016 0.1211,0.2307 0.2416,0.4745 0.3262,0.6758 0.085,0.2012 0.1172,0.3995 0.1172,0.3418 0,0.1583 -0.1791,0.3554 -0.5,0.3554 -0.3206,0 -0.5,-0.1971 -0.5,-0.3554 0,0.058 0.033,-0.1406 0.1172,-0.3418 0.085,-0.2013 0.2051,-0.4451 0.3262,-0.6758 0.028,-0.054 0.029,-0.05 0.057,-0.1016 z" color="#000" font-family="sans-serif" font-weight="400" overflow="visible" style="line-height:normal;font-variant-ligatures:normal;font-variant-position:normal;font-variant-caps:normal;font-variant-numeric:normal;font-variant-alternates:normal;font-feature-settings:normal;text-indent:0;text-align:start;text-decoration-line:none;text-decoration-style:solid;text-decoration-color:#000;text-transform:none;text-orientation:mixed;shape-padding:0;isolation:auto;mix-blend-mode:normal"/><path fill="#484666" fill-rule="evenodd" d="M-2061.1028 1896.2581a.250025.250025 0 0 0-.1718.076l-.2344.2364a.250025.250025 0 1 0 .3535.3535l.2344-.2363a.250025.250025 0 0 0-.1817-.4297zM-2059.8489 1895.2581a.250025.250025 0 0 0-.1757.4297l.2363.2363a.250025.250025 0 1 0 .3535-.3535l-.2344-.2364a.250025.250025 0 0 0-.1797-.076zM-2060.0989 1896.5081a.250025.250025 0 0 0-.1757.4297l.2363.2363a.250025.250025 0 1 0 .3535-.3535l-.2344-.2364a.250025.250025 0 0 0-.1797-.076z" color="#000" font-family="sans-serif" font-weight="400" overflow="visible" style="line-height:normal;font-variant-ligatures:normal;font-variant-position:normal;font-variant-caps:normal;font-variant-numeric:normal;font-variant-alternates:normal;font-feature-settings:normal;text-indent:0;text-align:start;text-decoration-line:none;text-decoration-style:solid;text-decoration-color:#000;text-transform:none;text-orientation:mixed;shape-padding:0;isolation:auto;mix-blend-mode:normal"/><path fill="#81d4ef" d="m -2077.0969,1907.76 a 0.250025,0.250025 0 0 0 -0.25,0.25 v 5.5 a 0.250025,0.250025 0 0 0 0.25,0.25 h 8.5 a 0.250025,0.250025 0 0 0 0.25,-0.25 v -5.5 a 0.250025,0.250025 0 0 0 -0.25,-0.25 z m 0.25,0.5 h 8 v 5 h -8 z" color="#000" font-family="sans-serif" font-weight="400" opacity="0" overflow="visible" style="line-height:normal;font-variant-ligatures:normal;font-variant-position:normal;font-variant-caps:normal;font-variant-numeric:normal;font-variant-alternates:normal;font-feature-settings:normal;text-indent:0;text-align:start;text-decoration-line:none;text-decoration-style:solid;text-decoration-color:#000;text-transform:none;text-orientation:mixed;shape-padding:0;isolation:auto;mix-blend-mode:normal"/><path fill="#e99b76" style="line-height:normal;font-variant-ligatures:normal;font-variant-position:normal;font-variant-caps:normal;font-variant-numeric:normal;font-variant-alternates:normal;font-feature-settings:normal;text-indent:0;text-align:start;text-decoration-line:none;text-decoration-style:solid;text-decoration-color:#000;text-transform:none;text-orientation:mixed;shape-padding:0;isolation:auto;mix-blend-mode:normal" d="m -2072.0977,1898.5104 v 3 h 1.25 c 0.2761,0 0.5,0.2238 0.5,0.5 v 2.3535 l 2.1699,3.3769 c 0.052,0.08 0.08,0.1739 0.08,0.2696 v 7.5 h 13 c 0,-0.1695 0,-0.2468 0,-0.42 h -12.5 v -7.5 c 0,-0.096 -0.028,-0.1895 -0.08,-0.2695 l -2.1699,-3.377 v -2.3535 c 0,-0.2762 -0.2239,-0.5 -0.5,-0.5 h -1.25 v -2.58 z" color="#000" font-family="sans-serif" font-weight="400" overflow="visible"/><path fill="#ff7158" style="line-height:normal;font-variant-ligatures:normal;font-variant-position:normal;font-variant-caps:normal;font-variant-numeric:normal;font-variant-alternates:normal;font-feature-settings:normal;text-indent:0;text-align:start;text-decoration-line:none;text-decoration-style:solid;text-decoration-color:#000;text-transform:none;text-orientation:mixed;shape-padding:0;isolation:auto;mix-blend-mode:normal" d="m -2068.0977,1916.5104 v 4 h 11 c 0.6144,0 1.1507,-0.2745 1.5156,-0.7012 -0.2976,0.1744 -0.6409,0.2812 -1.0156,0.2812 h -11 v -3.58 z" color="#000" font-family="sans-serif" font-weight="400" overflow="visible"/><path fill="#85c5a4" d="m -2063.6661,1895.9986 -1.3789,1.2442 h -4.0156 c -0.01,0.087 -0.023,0.1733 -0.027,0.2656 h 4.043 l 1.4551,-1.3125 c -0.022,-0.071 -0.053,-0.1285 -0.076,-0.1973 z" color="#000" font-family="sans-serif" font-weight="400" overflow="visible" style="line-height:normal;font-variant-ligatures:normal;font-variant-position:normal;font-variant-caps:normal;font-variant-numeric:normal;font-variant-alternates:normal;font-feature-settings:normal;text-indent:0;text-align:start;text-decoration-line:none;text-decoration-style:solid;text-decoration-color:#000;text-transform:none;text-orientation:mixed;shape-padding:0;isolation:auto;mix-blend-mode:normal"/><path fill="#e78999" d="m -2063.252,1897.2447 -0.295,0.2657 h 5.3086 c 0,-0.089 -0.014,-0.1766 -0.016,-0.2657 z" color="#000" font-family="sans-serif" font-weight="400" overflow="visible" style="line-height:normal;font-variant-ligatures:normal;font-variant-position:normal;font-variant-caps:normal;font-variant-numeric:normal;font-variant-alternates:normal;font-feature-settings:normal;text-indent:0;text-align:start;text-decoration-line:none;text-decoration-style:solid;text-decoration-color:#000;text-transform:none;text-orientation:mixed;shape-padding:0;isolation:auto;mix-blend-mode:normal"/><path fill="#85c5a4" d="m -2057.2442,1897.2232 c 0,0.096 0.01,0.1911 0,0.2872 h 0.6855 c 0,-0.096 -0.01,-0.1914 -0.01,-0.2872 z"/><path fill="#8ac6ce" d="m -2079.3477,1905.4361 -1.334,2.0743 h 0.4375 l 1.1152,-1.7344 z m -1.75,3.0743 v 12 h 0.4375 v -12 z" color="#000" font-family="sans-serif" font-weight="400" overflow="visible" style="line-height:normal;font-variant-ligatures:normal;font-variant-position:normal;font-variant-caps:normal;font-variant-numeric:normal;font-variant-alternates:normal;font-feature-settings:normal;text-indent:0;text-align:start;text-decoration-line:none;text-decoration-style:solid;text-decoration-color:#000;text-transform:none;text-orientation:mixed;shape-padding:0;isolation:auto;mix-blend-mode:normal"/><path fill="#c6d1dc" d="m -2072.8458,1913.5377 c -0.027,0.049 -0.029,0.046 -0.057,0.1 -0.1211,0.2307 -0.2412,0.4745 -0.3262,0.6758 -0.084,0.2012 -0.1172,0.3998 -0.1172,0.3418 0,0.1583 0.1794,0.3555 0.5,0.3555 0.2731,0 0.4358,-0.1432 0.4805,-0.2832 -0.058,0.017 -0.1206,0.029 -0.1934,0.029 -0.3206,0 -0.5,-0.1972 -0.5,-0.3555 0,0.058 0.033,-0.1406 0.1172,-0.3418 0.046,-0.1099 0.116,-0.243 0.1777,-0.3692 -0.01,-0.018 -0.016,-0.035 -0.025,-0.053 -0.028,-0.052 -0.031,-0.051 -0.057,-0.1 z" color="#000" font-family="sans-serif" font-weight="400" overflow="visible" style="line-height:normal;font-variant-ligatures:normal;font-variant-position:normal;font-variant-caps:normal;font-variant-numeric:normal;font-variant-alternates:normal;font-feature-settings:normal;text-indent:0;text-align:start;text-decoration-line:none;text-decoration-style:solid;text-decoration-color:#000;text-transform:none;text-orientation:mixed;shape-padding:0;isolation:auto;mix-blend-mode:normal"/><rect width=".75" height="13" x="-2057.232" y="1900.633" fill="#fff"/><path fill="#c6d1dc" style="line-height:normal;font-variant-ligatures:normal;font-variant-position:normal;font-variant-caps:normal;font-variant-numeric:normal;font-variant-alternates:normal;font-feature-settings:normal;text-indent:0;text-align:start;text-decoration-line:none;text-decoration-style:solid;text-decoration-color:#000;text-transform:none;text-orientation:mixed;shape-padding:0;isolation:auto;mix-blend-mode:normal" d="M-2311.6738 1368.6719v1.5h.5781v-1.5zM-2311.2598 1371.1719l1.6075 2.5h.5781l-1.6074-2.5zM-2309.4238 1374.6719v12h.5781v-12z" color="#000" font-family="sans-serif" font-weight="400" overflow="visible" transform="translate(232.827 533.838)"/></g></svg>