<svg xmlns="http://www.w3.org/2000/svg" viewBox="0 0 64 64"><g data-name="Filled outline"><ellipse cx="32" cy="53.5" fill="#fccd1d" rx="29" ry="7.5"/><ellipse cx="32" cy="53.5" fill="#f9a215" rx="20" ry="3.5"/><path fill="#dd051d" d="M54,25A22,22,0,1,0,22.865,45.013l7.818,7.836a2,2,0,0,0,2.634,0l7.818-7.836A22,22,0,0,0,54,25Z"/><circle cx="32" cy="25" r="18" fill="#fff"/><rect width="10.054" height="24.749" x="26.973" y="12.626" fill="#e6e7e8" rx="5.027" transform="rotate(-135 32 25)"/><path fill="#dd051d" d="M28.445,21.445l5.2-5.195a5.027,5.027,0,0,1,7.109,7.109l-5.195,5.2Z"/><circle cx="32" cy="57" r="1"/><path d="M42.634,45.376a23,23,0,1,0-21.268,0C8.512,46.344,2,49.073,2,53.5,2,60.525,18.314,62,32,62s30-1.475,30-8.5C62,49.073,55.488,46.344,42.634,45.376ZM11,25A21,21,0,1,1,40.72,44.1a.97.97,0,0,0-.292.2L32.658,52.1a.993.993,0,0,1-1.266.047L28.615,49.36c-.012-.012-.023-.024-.035-.035l-5.008-5.018a.97.97,0,0,0-.292-.2A21.064,21.064,0,0,1,11,25ZM32,60C14.729,60,4,57.51,4,53.5c0-3.276,7.167-5.553,19.668-6.267l1.942,1.946C19.329,49.532,11,50.555,11,53.5c0,3.326,10.618,4.2,16.948,4.429h.036a1,1,0,0,0,.035-2C18.445,55.588,14,54.214,13.107,53.5c.88-.7,5.19-2.036,14.412-2.409L30.025,53.6a2.966,2.966,0,0,0,1.956.732,3.093,3.093,0,0,0,2.043-.779l2.458-2.464C45.7,51.464,50.013,52.8,50.893,53.5c-.9.714-5.337,2.088-14.91,2.431a1,1,0,0,0,.035,2h.036C42.383,57.7,53,56.826,53,53.5c0-2.944-8.328-3.968-14.609-4.321l1.942-1.946C52.833,47.947,60,50.224,60,53.5,60,57.51,49.271,60,32,60Z"/><path d="M51,25A19,19,0,1,0,32,44,19.021,19.021,0,0,0,51,25ZM15,25A17,17,0,1,1,32,42,17.019,17.019,0,0,1,15,25Z"/><path d="M43.223,19.805a6.028,6.028,0,0,0-10.289-4.262L22.543,25.934a6.027,6.027,0,1,0,8.523,8.523L41.457,24.066A5.981,5.981,0,0,0,43.223,19.805ZM29.652,33.043a4.027,4.027,0,0,1-5.695-5.695l4.488-4.489,5.7,5.7ZM40.043,22.652l-4.488,4.489-5.7-5.7,4.489-4.488a4.027,4.027,0,0,1,5.7,5.7Z"/></g></svg>