<svg xmlns="http://www.w3.org/2000/svg" id="svg6485" width="32" height="32" version="1.1" viewBox="0 0 32 32"><g id="layer1" transform="translate(0 -1020.362)"><g id="g15517" transform="translate(-551.162 -113.324)"><path id="path5869" fill="#f1937b" fill-opacity="1" stroke="none" stroke-dasharray="none" stroke-dashoffset="0" stroke-linecap="round" stroke-linejoin="round" stroke-miterlimit="4" stroke-opacity="1" stroke-width="1" d="m 574.484,1155.6107 c -0.14592,0.2274 -0.29405,0.4521 -0.44388,0.674 -3.08074,4.5621 -6.87687,7.9016 -6.87687,7.9016 0,0 -10.75003,-9.4565 -10.75003,-18.2826 0,-5.9191 4.81296,-10.7174 10.75003,-10.7174 4.76566,0 8.80702,3.0916 10.21627,7.373 0.3464,1.0522 0.53376,2.1766 0.53376,3.3444 0,0.7351 -0.0746,1.4744 -0.21128,2.2124 m -0.75806,2.6914 c -0.18591,0.4995 -0.39406,0.9947 -0.62038,1.4841 -0.0771,0.1667 -0.15623,0.3325 -0.23735,0.4977" opacity="1"/><path id="path5901" fill="#e47a5f" fill-opacity="1" stroke="none" stroke-dasharray="none" stroke-dashoffset="0" stroke-linecap="round" stroke-linejoin="round" stroke-miterlimit="4" stroke-opacity="1" stroke-width="1" d="m 567.16298,1135.1863 c -0.96068,0 -1.88725,0.1374 -2.77343,0.373 4.58958,1.2215 7.97461,5.3831 7.97461,10.3438 0,5.9177 -4.78973,12.0519 -7.97461,15.4961 1.5651,1.6925 2.77343,2.7871 2.77343,2.7871 0,0 3.79622,-3.3402 6.87696,-7.9023 0.14983,-0.2219 0.29744,-0.4465 0.44336,-0.6739 1.51025,-2.3106 2.67398,-4.7697 3.21875,-7.4941 0.13668,-0.738 0.21093,-1.4778 0.21093,-2.2129 0,-1.1678 -0.1868,-2.2916 -0.5332,-3.3438 -1.40925,-4.2814 -5.45114,-7.373 -10.2168,-7.373 z m 9.78125,15.6211 -0.85742,1.9824 c 0.0811,-0.1652 0.15923,-0.3313 0.23633,-0.498 0.22632,-0.4894 0.43518,-0.9849 0.62109,-1.4844 z" opacity="1"/><path id="ellipse5871" fill="#fff" fill-opacity="1" stroke="none" stroke-dasharray="none" stroke-dashoffset="0" stroke-linecap="round" stroke-linejoin="round" stroke-miterlimit="4" stroke-opacity="1" stroke-width="1" d="m 574.71735,1146.2063 a 7.5540833,7.5400295 0 0 1 -7.55408,7.54 7.5540833,7.5400295 0 0 1 -7.55408,-7.54 7.5540833,7.5400295 0 0 1 7.55408,-7.54 7.5540833,7.5400295 0 0 1 7.55408,7.54 z" opacity="1"/><path id="ellipse5903" fill="#ddd" fill-opacity="1" stroke="none" stroke-dasharray="none" stroke-dashoffset="0" stroke-linecap="round" stroke-linejoin="round" stroke-miterlimit="4" stroke-opacity="1" stroke-width="1" d="m 570.01455,1139.2273 c 1.46691,1.8321 2.34961,4.1493 2.34961,6.6758 0,2.3895 -0.80001,4.8198 -1.94922,7.1016 a 7.5540833,7.5400295 0 0 0 4.30273,-6.7989 7.5540833,7.5400295 0 0 0 -4.70312,-6.9785 z" opacity="1"/><path id="path5866" fill="#b3b3b3" fill-opacity="1" stroke="none" stroke-dasharray="none" stroke-dashoffset="0" stroke-linecap="round" stroke-linejoin="round" stroke-miterlimit="4" stroke-opacity="1" stroke-width="1" d="m 563.00563,1147.8525 c -10e-6,-2.3473 1.84131,-4.4661 4.1127,-4.4661 2.27139,0 4.11271,2.1188 4.1127,4.4661" opacity="1"/><path id="path5842" fill="#000" fill-opacity="1" fill-rule="nonzero" stroke="none" stroke-dasharray="none" stroke-dashoffset="0" stroke-linecap="round" stroke-linejoin="round" stroke-miterlimit="4" stroke-opacity="1" stroke-width="1" d="m 567.16211,114.32227 c -6.20646,0 -11.25,5.0305 -11.25,11.2207 0,4.616 2.7615,9.24786 5.48047,12.75586 2.71897,3.508 5.43945,5.90234 5.43945,5.90234 a 0.50005,0.50005 0 0 0 0.66016,0 c 0,0 3.83691,-3.3738 6.96093,-8 0.1519,-0.2249 0.30305,-0.45269 0.45118,-0.68359 a 0.50033236,0.50033236 0 1 0 -0.8418,-0.54102 c -0.1437,0.224 -0.28974,0.44722 -0.4375,0.66602 -2.81794,4.173 -5.98491,7.05107 -6.4668,7.48437 -0.45592,-0.4111 -2.58756,-2.3591 -4.97656,-5.4414 -2.65604,-3.4268 -5.26953,-7.93258 -5.26953,-12.14258 0,-5.6481 4.58233,-10.2207 10.25,-10.2207 4.54942,0 8.39935,2.94969 9.74219,7.02929 0.33006,1.0026 0.50781,2.07711 0.50781,3.19141 0,0.7013 -0.0714,1.40979 -0.20313,2.12109 a 0.50049047,0.50049047 0 1 0 0.98438,0.17969 c 0.14164,-0.7647 0.21875,-1.53188 0.21875,-2.30078 0,-1.2213 -0.19585,-2.40201 -0.55859,-3.50391 -1.47566,-4.4831 -5.7095,-7.71679 -10.69141,-7.71679 z m 0,3.48046 c -4.44172,0 -8.05469,3.60602 -8.05469,8.04102 0,4.435 3.61297,8.04102 8.05469,8.04102 4.44173,0 8.05469,-3.60602 8.05469,-8.04102 0,-4.435 -3.61296,-8.04102 -8.05469,-8.04102 z m 0,1 c 3.90229,0 7.05469,3.14752 7.05469,7.04102 0,3.8935 -3.1524,7.04102 -7.05469,7.04102 -3.90228,0 -7.05469,-3.14752 -7.05469,-7.04102 0,-3.8935 3.15241,-7.04102 7.05469,-7.04102 z m -0.008,2.51954 a 0.50005,0.50005 0 0 0 -0.49219,0.50781 l 0,0.74023 c -2.33301,0.24007 -4.1582,2.25392 -4.1582,4.70313 a 0.50004997,0.50004997 0 0 0 0.002,0.0488 l -0.41797,0 a 0.50004994,0.50004994 0 1 0 0,1 l 10.14844,0 a 0.50004994,0.50004994 0 1 0 0,-1 l -0.50781,0 a 0.50004997,0.50004997 0 0 0 0.002,-0.0488 c 0,-2.41808 -1.77813,-4.41147 -4.06836,-4.69336 l 0,-0.75 a 0.50005,0.50005 0 0 0 -0.50781,-0.50781 z m -0.0371,2.20117 c 1.99213,0 3.61328,1.6642 3.61328,3.75 a 0.50004997,0.50004997 0 0 0 0.002,0.0488 l -7.23047,0 a 0.50004997,0.50004997 0 0 0 0.002,-0.0488 c 0,-2.0858 1.62115,-3.75 3.61328,-3.75 z m 9.80078,6.41601 a 0.50005,0.50005 0 0 0 -0.44336,0.33008 c -0.18103,0.4864 -0.38406,0.97042 -0.60547,1.44922 -0.0754,0.1631 -0.15293,0.32453 -0.23242,0.48633 a 0.50005,0.50005 0 1 0 0.89648,0.4414 c 0.0828,-0.1685 0.16535,-0.33741 0.24414,-0.50781 0.23123,-0.5 0.44399,-1.00693 0.63477,-1.51953 a 0.50005,0.50005 0 0 0 -0.44531,-0.67969 0.50005,0.50005 0 0 0 -0.0488,0 z" baseline-shift="baseline" clip-rule="nonzero" color="#000" color-interpolation="sRGB" color-interpolation-filters="linearRGB" color-rendering="auto" direction="ltr" display="inline" enable-background="accumulate" font-family="sans-serif" font-size="medium" font-stretch="normal" font-variant="normal" opacity="1" transform="translate(0 1020.362)" style="line-height:normal;text-indent:0;text-align:start;text-decoration-line:none;text-decoration-style:solid;text-decoration-color:#000;text-transform:none;white-space:normal;isolation:auto;mix-blend-mode:normal;solid-color:#000;solid-opacity:1" font-style="normal" font-weight="400" image-rendering="auto" letter-spacing="normal" overflow="visible" shape-rendering="auto" text-anchor="start" text-decoration="none" text-rendering="auto" visibility="visible" word-spacing="normal" writing-mode="lr-tb"/></g></g></svg>